<svg version="1.1" id="Layer_1" xmlns="http://www.w3.org/2000/svg" xmlns:xlink="http://www.w3.org/1999/xlink" x="0px" y="0px" viewBox="0 0 512 512" style="enable-background:new 0 0 4000 4000;" xml:space="preserve" width="512" height="512"><g><g><g><g><path style="fill:#00000;" d="M423.621 283.228c0 -97.186 -78.785 -175.97 -175.97 -175.97C150.465 107.258 71.68 186.043 71.68 283.228c0 45.135 17 86.294 44.937 117.443h262.067c27.937 -31.149 44.937 -72.308 44.937 -117.443"/></g></g><g style="opacity:0.3;"><path style="fill:#4D0D4F;" cx="2027.5" cy="3179.846" rx="1522.5" ry="80.154" d="M454.4 407.02A194.88 10.26 0 0 1 259.52 417.28A194.88 10.26 0 0 1 64.64 407.02A194.88 10.26 0 0 1 454.4 407.02z"/></g><g><path style="fill:#D6671D;" d="M402.232 400.417H154.262c-5.018 0 -9.086 -4.068 -9.086 -9.086s4.068 -9.086 9.086 -9.086h247.969c5.018 0 9.086 4.068 9.086 9.086 0 5.018 -4.068 9.086 -9.085 9.086"/></g><g><path x="1158.429" y="2456.537" style="fill:#474651;" width="1155.415" height="600.741" d="M148.279 314.437H296.172V391.332H148.279V314.437z"/></g><g><path style="fill:#D6671D;" d="M295.969 400.417H154.262c-5.018 0 -9.086 -4.068 -9.086 -9.086s4.068 -9.086 9.086 -9.086H295.969c5.018 0 9.086 4.068 9.086 9.086s-4.068 9.086 -9.086 9.086"/></g><g style="opacity:0.3;"><path style="fill:#4D0D4F;" d="M295.969 400.417H154.262c-5.018 0 -9.086 -4.068 -9.086 -9.086s4.068 -9.086 9.086 -9.086H295.969c5.018 0 9.086 4.068 9.086 9.086s-4.068 9.086 -9.086 9.086"/></g><g style="opacity:0.33;"><path style="fill:#FFFFFF;" d="M402.232 382.246H154.262c-4.245 0 -7.799 2.915 -8.797 6.85 1.284 -0.695 2.754 -1.09 4.317 -1.09h247.969c5.018 0 9.086 4.068 9.086 9.086 0 0.773 -0.107 1.519 -0.289 2.236 2.84 -1.536 4.769 -4.54 4.769 -7.996 0 -5.018 -4.068 -9.086 -9.086 -9.086"/></g><g><path style="fill:#4D0D4F;" d="M295.97 403.076h-141.708c-6.476 0 -11.745 -5.268 -11.745 -11.745s5.268 -11.745 11.745 -11.745h141.708c6.476 0 11.744 5.268 11.744 11.745s-5.268 11.745 -11.744 11.745m-141.708 -18.171c-3.543 0 -6.427 2.883 -6.427 6.427s2.883 6.427 6.427 6.427h141.708c3.543 0 6.426 -2.883 6.426 -6.427s-2.883 -6.427 -6.426 -6.427z"/></g><g><path style="fill:#62616D;" d="M185.619 337.253a21.248 21.248 0 0 0 -0.938 -0.499c-0.549 -2.629 -2.092 -5.399 -4.936 -8.268 -11 -11.095 -17.827 -24.034 -17.827 -24.034 -10.637 -3.324 -51.533 11.98 -63.056 43.669s1.773 43.877 35.013 37.672 71.355 -37.45 51.744 -48.539"/></g><g><path style="fill:#62616D;" d="M185.619 337.253a21.248 21.248 0 0 0 -0.938 -0.499c-0.549 -2.629 -2.092 -5.399 -4.936 -8.268 -11 -11.095 -17.827 -24.034 -17.827 -24.034 -10.637 -3.324 -51.533 11.98 -63.056 43.669s1.773 43.877 35.013 37.672 71.355 -37.45 51.744 -48.539"/></g><g style="opacity:0.6;"><path style="fill:#FFFFFF;" d="M104.451 353.252c9.16 -25.189 32.829 -42.282 52.702 -50.595 -14.097 -0.101 -49.118 15.17 -59.642 44.111 -6.099 16.772 -5.241 28.078 1.842 34.089 -0.572 -7.37 1.081 -16.559 5.098 -27.605"/></g><g><path style="fill:#4D0D4F;" d="M121.078 342.683c5.639 -2.989 11.582 -5.26 17.659 -7.156 6.081 -1.882 12.334 -3.292 18.728 -4.069 6.386 -0.76 12.933 -1.078 19.572 0.02 3.306 0.566 6.653 1.517 9.796 3.217 1.6 0.851 3.188 2.033 4.501 3.614 0.637 0.808 1.226 1.695 1.634 2.687 0.409 0.982 0.704 2.026 0.816 3.066 0.237 2.085 -0.082 4.088 -0.65 5.858 -0.564 1.786 -1.356 3.4 -2.252 4.892 -1.799 2.985 -3.977 5.548 -6.285 7.916 -4.652 4.7 -9.88 8.595 -15.347 12.047a112.896 112.896 0 0 1 -17.23 8.84c-5.983 2.439 -12.243 4.383 -18.681 5.504 -3.176 0.576 -6.401 1.003 -9.672 1.238 -3.27 0.232 -6.593 0.272 -9.962 -0.064 -3.36 -0.352 -6.8 -1.039 -10.107 -2.536 -0.818 -0.402 -1.642 -0.778 -2.422 -1.291 -0.803 -0.453 -1.543 -1.036 -2.288 -1.604 -1.429 -1.22 -2.769 -2.604 -3.787 -4.209 -1.015 -1.59 -1.853 -3.302 -2.36 -5.06 -0.312 -0.874 -0.462 -1.759 -0.668 -2.641 -0.155 -0.881 -0.273 -1.765 -0.36 -2.642 -0.289 -3.511 0.005 -6.919 0.567 -10.206 0.576 -3.286 1.401 -6.476 2.415 -9.568 0.237 -0.782 0.525 -1.537 0.785 -2.307l0.401 -1.149 0.462 -1.16c0.318 -0.77 0.601 -1.555 0.95 -2.31l1.064 -2.257c1.507 -2.96 3.208 -5.816 5.153 -8.485 1.958 -2.657 4.09 -5.168 6.363 -7.53 2.3 -2.334 4.73 -4.524 7.267 -6.569 2.54 -2.042 5.209 -3.907 7.948 -5.651a87.04 87.04 0 0 1 8.489 -4.757c2.913 -1.431 5.901 -2.714 8.971 -3.813 3.072 -1.097 6.229 -1.994 9.506 -2.608 0.81 -0.172 1.66 -0.26 2.488 -0.392 0.857 -0.073 1.686 -0.196 2.572 -0.205 1.745 -0.062 3.538 -0.051 5.598 0.571 1.406 0.425 2.201 1.908 1.777 3.314 -0.423 1.398 -1.893 2.193 -3.292 1.783l-0.071 -0.021c-0.963 -0.282 -2.367 -0.339 -3.747 -0.239 -0.686 0.015 -1.413 0.143 -2.12 0.213 -0.72 0.134 -1.436 0.215 -2.159 0.387 -2.89 0.596 -5.774 1.496 -8.606 2.543 -5.661 2.122 -11.136 4.881 -16.22 8.199 -2.541 1.66 -5.011 3.428 -7.347 5.351 -2.332 1.926 -4.552 3.975 -6.639 6.14 -2.058 2.192 -3.971 4.502 -5.715 6.923 -1.725 2.435 -3.249 4.99 -4.578 7.635l-0.937 2.01c-0.308 0.671 -0.552 1.369 -0.832 2.051l-0.407 1.03 -0.37 1.078c-0.239 0.719 -0.51 1.434 -0.724 2.157 -0.934 2.881 -1.666 5.797 -2.162 8.701 -0.487 2.901 -0.702 5.806 -0.463 8.563 0.072 0.683 0.17 1.359 0.282 2.024 0.159 0.645 0.258 1.318 0.486 1.924 0.355 1.267 0.936 2.397 1.596 3.454 0.661 1.062 1.544 1.945 2.488 2.772 0.511 0.376 0.996 0.782 1.569 1.096 0.531 0.362 1.143 0.628 1.732 0.927 2.425 1.108 5.226 1.704 8.1 2.003 2.884 0.292 5.868 0.267 8.862 0.056 2.996 -0.211 6.012 -0.604 9.018 -1.148 5.954 -0.998 11.78 -2.761 17.444 -5.027a106.752 106.752 0 0 0 16.326 -8.246c5.177 -3.21 10.093 -6.875 14.335 -11.067 2.101 -2.099 4.032 -4.35 5.505 -6.737 1.471 -2.361 2.427 -4.956 2.2 -7.05 -0.112 -1.042 -0.49 -1.957 -1.161 -2.811 -0.689 -0.842 -1.63 -1.623 -2.797 -2.253 -2.378 -1.325 -5.138 -2.178 -8.008 -2.701 -5.772 -1.036 -11.925 -0.854 -17.999 -0.194 -12.197 1.371 -24.346 4.172 -36.667 6.8l-0.013 0.003a0.47 0.47 0 0 1 -0.558 -0.362 0.471 0.471 0 0 1 0.24 -0.514"/></g><g><g><path style="fill:#62616D;" d="M251.876 358.479s-76.008 -0.388 -93.293 -63.876 25.262 -97.614 51.854 -93.182 78.776 17.95 89.58 60.053 8.2 94.512 -48.141 97.005"/></g><g style="opacity:0.33;"><path style="fill:#FFFFFF;" d="M300.018 261.475c-10.804 -42.104 -62.988 -55.621 -89.58 -60.053 -10.722 -1.787 -24.034 2.703 -34.975 12.851 9.909 -6.713 20.775 -9.48 29.872 -7.964 6.172 1.029 13.651 2.522 21.684 4.698 -1.643 0.817 -2.719 1.957 -2.936 3.338 -0.562 3.566 4.763 7.368 11.894 8.492 6.848 1.079 12.856 -0.708 13.821 -4.01 22.156 9.485 43.396 25.087 49.996 50.805 2.737 10.668 4.653 21.962 5.168 33.003 0.545 -13.48 -1.524 -27.835 -4.943 -41.16"/></g><g><path style="fill:#4D0D4F;" d="M251.876 361.138h-0.013c-0.796 -0.004 -19.729 -0.193 -41.095 -8.303 -28.518 -10.825 -47.45 -30.72 -54.751 -57.534 -4.563 -16.761 -5.332 -32.518 -2.285 -46.833 2.637 -12.389 8.207 -23.557 16.108 -32.296 11.557 -12.783 27.662 -19.603 41.034 -17.374 29.576 4.929 80.82 19.54 91.719 62.015 7.671 29.893 3.404 61.431 -10.871 80.346 -9.531 12.63 -23.285 19.538 -39.775 19.977q-0.036 0.001 -0.071 0.001M205.633 203.692c-10.678 0 -22.742 5.977 -31.847 16.047 -16.034 17.735 -20.64 44.768 -12.637 74.166 6.932 25.463 24.261 43.617 51.506 53.958 20.039 7.606 38.255 7.944 39.198 7.956 15.005 -0.412 26.99 -6.422 35.624 -17.863 13.337 -17.673 17.249 -47.435 9.965 -75.821 -10.151 -39.556 -59.142 -53.375 -87.442 -58.091 -1.421 -0.237 -2.881 -0.353 -4.367 -0.353"/></g></g><g><path style="fill:#FCD8C5;" d="M228.896 261.045c-13.864 5.196 -23.665 17.533 -25.488 32.226 -1.233 9.941 -0.721 22.053 5.367 32.91 13.296 23.711 68.918 19.825 79.831 4.875 12.132 -16.62 11.025 -54.292 -2.493 -65.372 -10.374 -8.503 -34.32 -13.221 -57.217 -4.64"/></g><g><path style="fill:#FCD8C5;" d="M228.896 261.045c-13.864 5.196 -23.665 17.533 -25.488 32.226 -1.233 9.941 -0.721 22.053 5.367 32.91 13.296 23.711 68.918 19.825 79.831 4.875 12.132 -16.62 11.025 -54.292 -2.493 -65.372 -10.374 -8.503 -34.32 -13.221 -57.217 -4.64"/></g><defs><filter id="Adobe_OpacityMaskFilter" filterUnits="userSpaceOnUse" x="1736.137" y="1875.84" width="1463.545" height="999.657"><feFlood style="flood-color:white;flood-opacity:1" result="back"/><feBlend in="SourceGraphic" in2="back" mode="normal"/></filter></defs><mask maskUnits="userSpaceOnUse" x="1736.137" y="1875.84" width="1463.545" height="999.657" id="SVGID_1_"><g style="filter:url(#Adobe_OpacityMaskFilter);"><defs><filter id="Adobe_OpacityMaskFilter_00000125591162051705125550000016538106263747665798_" filterUnits="userSpaceOnUse" x="1736.137" y="1875.84" width="1463.545" height="999.657"><feFlood style="flood-color:white;flood-opacity:1" result="back"/><feBlend in="SourceGraphic" in2="back" mode="normal"/></filter></defs><mask maskUnits="userSpaceOnUse" x="1736.137" y="1875.84" width="1463.545" height="999.657" id="SVGID_1_"><g style="filter:url(#Adobe_OpacityMaskFilter_00000125591162051705125550000016538106263747665798_);"/></mask><radialGradient id="SVGID_00000159471656157323547510000001028571325049397914_" cx="2552.0791" cy="2679.8674" r="721.6519" gradientUnits="userSpaceOnUse"><stop offset="0" style="stop-color:#FFFFFF"/><stop offset="0.1504" style="stop-color:#FCFCFC"/><stop offset="0.2793" style="stop-color:#F1F1F1"/><stop offset="0.4003" style="stop-color:#DFDFDF"/><stop offset="0.5166" style="stop-color:#C6C6C6"/><stop offset="0.6294" style="stop-color:#A6A6A6"/><stop offset="0.7397" style="stop-color:#7F7F7F"/><stop offset="0.8479" style="stop-color:#505050"/><stop offset="0.9518" style="stop-color:#1B1B1B"/><stop offset="1" style="stop-color:#000000"/></radialGradient><path style="mask:url(#SVGID_1_);fill:url(#SVGID_00000159471656157323547510000001028571325049397914_);" d="M330.267 291.723h79.292c-17.019 -30.774 -49.801 -51.615 -87.457 -51.615 -55.16 0 -99.877 44.717 -99.877 99.877 0 9.75 1.403 19.171 4.008 28.079h43.974z"/></g></mask><radialGradient id="SVGID_00000150097110404350574220000014816535751460390071_" cx="2552.0791" cy="2679.8674" r="721.6519" gradientUnits="userSpaceOnUse"><stop offset="0" style="stop-color:#0BA4C8"/><stop offset="0.1533" style="stop-color:#0EA5C9"/><stop offset="0.2847" style="stop-color:#19A9CB"/><stop offset="0.4081" style="stop-color:#2BB0CF"/><stop offset="0.5266" style="stop-color:#44B9D5"/><stop offset="0.6416" style="stop-color:#64C5DC"/><stop offset="0.754" style="stop-color:#8BD4E5"/><stop offset="0.8643" style="stop-color:#BAE5EF"/><stop offset="0.9703" style="stop-color:#EFF9FB"/><stop offset="1" style="stop-color:#FFFFFF"/></radialGradient><path style="fill:url(#SVGID_00000150097110404350574220000014816535751460390071_);" d="M330.267 291.723h79.292c-17.019 -30.774 -49.801 -51.615 -87.457 -51.615 -55.16 0 -99.877 44.717 -99.877 99.877 0 9.75 1.403 19.171 4.008 28.079h43.974z"/><defs><filter id="Adobe_OpacityMaskFilter_00000078042716083586322370000013221861487648426675_" filterUnits="userSpaceOnUse" x="1210" y="1720" width="2230" height="1170"><feFlood style="flood-color:white;flood-opacity:1" result="back"/><feBlend in="SourceGraphic" in2="back" mode="normal"/></filter></defs><mask maskUnits="userSpaceOnUse" x="1210" y="1720" width="2230" height="1170" id="SVGID_00000176724669204285427870000018049404402495267476_"><g style="filter:url(#Adobe_OpacityMaskFilter_00000078042716083586322370000013221861487648426675_);"><defs><filter id="Adobe_OpacityMaskFilter_00000005227899316318944770000005924757185385310350_" filterUnits="userSpaceOnUse" x="1210" y="1720" width="2230" height="1170"><feFlood style="flood-color:white;flood-opacity:1" result="back"/><feBlend in="SourceGraphic" in2="back" mode="normal"/></filter></defs><mask maskUnits="userSpaceOnUse" x="1210" y="1720" width="2230" height="1170" id="SVGID_00000176724669204285427870000018049404402495267476_"><g style="filter:url(#Adobe_OpacityMaskFilter_00000005227899316318944770000005924757185385310350_);"/></mask><path id="SVGID_00000034069373271006336670000012679982200490931616_" gradientUnits="userSpaceOnUse" x1="2350.3779" y1="1893.6346" x2="2350.3779" y2="2995.5042" gradientTransform="matrix(1.0017 .0109 .0109 1.0676 -53.043 -328.874)" d=""><stop offset="0" style="stop-color:#000000"/><stop offset="0.0299" style="stop-color:#0B0B0B"/><stop offset="0.2424" style="stop-color:#545454"/><stop offset="0.4423" style="stop-color:#919191"/><stop offset="0.6235" style="stop-color:#C0C0C0"/><stop offset="0.7827" style="stop-color:#E3E3E3"/><stop offset="0.9135" style="stop-color:#F7F7F7"/><stop offset="1" style="stop-color:#FFFFFF"/></path><path style="mask:url(#SVGID_00000176724669204285427870000018049404402495267476_);fill:url(#SVGID_00000034069373271006336670000012679982200490931616_);" points="
					3440,2280 2470,1720 1210,1750 1735,2888.227 3070,2890 				" d="M440.32 291.84L316.16 220.16L154.88 224L222.08 369.693L392.96 369.92Z"/></g></mask><path id="SVGID_00000071557684319134486850000012465628228412054952_" gradientUnits="userSpaceOnUse" x1="2350.3779" y1="1893.6346" x2="2350.3779" y2="2995.5042" gradientTransform="matrix(1.0017 .0109 .0109 1.0676 -53.043 -328.874)" d=""><stop offset="0" style="stop-color:#FFFFFF"/><stop offset="0.0941" style="stop-color:#FFFCE5"/><stop offset="0.3308" style="stop-color:#FFF6A9"/><stop offset="0.5482" style="stop-color:#FFF17A"/><stop offset="0.7391" style="stop-color:#FFEE57"/><stop offset="0.8962" style="stop-color:#FFEC43"/><stop offset="1" style="stop-color:#FFEB3B"/></path><path style="opacity:0.7;fill:url(#SVGID_00000071557684319134486850000012465628228412054952_);" points="3440,2280 
			2470,1720 1210,1750 1735,2888.227 3070,2890 		" d="M440.32 291.84L316.16 220.16L154.88 224L222.08 369.693L392.96 369.92Z"/><g style="opacity:0.6;"><path style="fill:#FFFFFF;" d="M286.114 265.685c-7.167 -5.875 -20.815 -9.94 -36.118 -9.063 11.827 0.693 21.962 4.279 27.799 9.063 13.518 11.08 14.626 48.752 2.493 65.372 -4.935 6.76 -19.01 11.257 -34.18 11.964 18.079 0.849 36.668 -3.978 42.499 -11.964 12.133 -16.62 11.025 -54.292 -2.493 -65.372"/></g><g style="opacity:0.3;"><path style="fill:#4D0D4F;" d="M226.461 323.485c-5.063 -8.247 -5.489 -17.446 -4.464 -24.996 1.516 -11.159 9.667 -20.53 21.197 -24.477 19.042 -6.518 38.957 -2.934 47.584 3.524 1.709 1.279 3.176 3.031 4.405 5.116 -1.767 -7.309 -4.798 -13.467 -9.069 -16.968 -10.374 -8.503 -34.321 -13.221 -57.217 -4.64 -13.864 5.196 -23.665 17.534 -25.488 32.226 -1.233 9.941 -0.721 22.053 5.367 32.91 13.296 23.711 68.917 19.825 79.831 4.875a28.16 28.16 0 0 0 0.541 -0.769c-14.154 8.633 -52.72 9.432 -62.687 -6.802"/></g><g><path style="fill:#4D0D4F;" d="M293.29 329.893c13.313 -8.186 -22.883 21.994 -39.454 21.994 -13.818 0 -26.239 -6.096 -34.81 -15.792 0 0 32.909 19.227 74.263 -6.202"/></g><g><path style="fill:#4D0D4F;" d="M250.144 345.774a88.576 88.576 0 0 1 -5.293 -0.155c-18.56 -1.111 -32.555 -7.721 -38.395 -18.137 -5.418 -9.663 -7.332 -21.283 -5.687 -34.539 1.943 -15.653 12.362 -28.83 27.194 -34.388 23.912 -8.963 48.676 -4.075 59.836 5.073 6.897 5.653 11.322 17.83 11.837 32.572 0.507 14.495 -2.814 28.111 -8.882 36.424 -6.507 8.913 -24.447 13.15 -40.611 13.15m4.088 -86.604c-7.86 0 -16.273 1.318 -24.403 4.364 -12.972 4.862 -22.084 16.381 -23.782 30.063 -1.502 12.105 0.196 22.63 5.048 31.283 4.937 8.805 17.357 14.429 34.074 15.429 17.939 1.077 36.077 -3.68 41.29 -10.821 5.309 -7.273 8.322 -19.957 7.863 -33.103 -0.456 -13.04 -4.247 -24.016 -9.893 -28.645 -6.269 -5.138 -17.511 -8.571 -30.196 -8.571m-25.336 1.874h0.006z"/></g><g><path style="fill:#4D0D4F;" d="M265.837 291.723h-62.712v6.205h9.72c0.69 6.293 6.019 11.191 12.496 11.191h18.614c6.477 0 11.806 -4.898 12.496 -11.191h6.919c0.69 6.293 6.019 11.191 12.496 11.191h12.299c6.945 0 12.576 -5.63 12.576 -12.576v-4.82z"/></g><g><path style="fill:#4D0D4F;" d="M244.75 329.999c0.989 -1.424 2.225 -2.465 3.606 -3.374 1.381 -0.887 2.894 -1.599 4.487 -2.042 1.589 -0.436 3.24 -0.729 4.885 -0.646 1.642 0.035 3.265 0.367 4.768 0.994a1.012 1.012 0 0 1 0.545 1.324 1.011 1.011 0 0 1 -0.726 0.601l-0.117 0.024c-0.759 0.155 -1.485 0.179 -2.203 0.261 -0.717 0.109 -1.425 0.127 -2.12 0.249l-1.043 0.124c-0.343 0.068 -0.687 0.113 -1.03 0.169 -0.347 0.032 -0.684 0.115 -1.024 0.18 -0.339 0.072 -0.687 0.109 -1.019 0.208 -1.357 0.296 -2.683 0.731 -4.002 1.233 -1.308 0.498 -2.637 1.145 -3.856 1.815l-0.096 0.053a0.81 0.81 0 0 1 -1.099 -0.32 0.81 0.81 0 0 1 0.045 -0.852"/></g><g><g style="opacity:0.33;"><path style="fill:#FFFFFF;" points="1918.769,2301.59 1822.685,2403.517 1872.458,2403.517 1968.542,2301.59 				" d="M245.602 294.604L233.304 307.65L239.675 307.65L251.973 294.604Z"/></g><g style="opacity:0.33;"><path style="fill:#FFFFFF;" points="1859.583,2301.59 1757.656,2403.517 1785.788,2403.517 1887.715,2301.59 				" d="M238.027 294.604L224.98 307.65L228.581 307.65L241.628 294.604Z"/></g></g><g><g style="opacity:0.33;"><path style="fill:#FFFFFF;" points="2283.079,2301.59 2186.996,2403.517 2236.768,2403.517 2332.852,2301.59 				" d="M292.234 294.604L279.935 307.65L286.306 307.65L298.605 294.604Z"/></g><g style="opacity:0.33;"><path style="fill:#FFFFFF;" points="2223.893,2301.59 2121.966,2403.517 2150.098,2403.517 2252.025,2301.59 				" d="M284.658 294.604L271.612 307.65L275.213 307.65L288.259 294.604Z"/></g></g><g><g><path style="fill:#FCD8C5;" d="M181.574 339.865s11.522 -10.638 36.009 -4.654 30.443 21.108 25.055 27.922c-5.388 6.814 -7.548 -8.31 -18.85 -11.135 -11.302 -2.825 -4.487 11.721 -24.016 12.882s-28.171 -17.037 -18.199 -25.015"/></g><g><path style="fill:#4D0D4F;" d="M198.016 367.592c-11.738 0.001 -19.555 -6.595 -22.186 -13.439 -2.366 -6.153 -0.824 -12.397 4.023 -16.316 1.213 -1.072 13.577 -11.266 38.362 -5.21 20.873 5.101 26.569 15.666 28.049 19.972 1.558 4.534 0.998 8.974 -1.539 12.183 -1.464 1.852 -3.02 2.753 -4.756 2.757l-0.01 0c-2.859 0 -4.761 -2.386 -6.963 -5.148 -2.497 -3.133 -5.327 -6.682 -9.852 -7.814 -3.23 -0.808 -3.654 -0.112 -5.434 2.818 -2.28 3.752 -5.726 9.422 -17.779 10.139 -0.648 0.039 -1.288 0.057 -1.914 0.057m5.201 -31.565c-13.202 0 -19.515 5.501 -19.852 5.804 -0.038 0.034 -0.09 0.079 -0.13 0.111 -3.066 2.453 -3.978 6.304 -2.441 10.303 2.077 5.402 8.707 10.585 18.821 9.981 9.271 -0.552 11.446 -4.131 13.549 -7.592 1.888 -3.107 4.235 -6.974 11.269 -5.215 6.272 1.568 9.999 6.244 12.721 9.658 0.905 1.135 2.114 2.653 2.769 3.073 0.129 -0.103 0.341 -0.301 0.628 -0.665 1.391 -1.759 1.64 -4.367 0.682 -7.155 -0.933 -2.715 -5.442 -11.931 -24.282 -16.535 -5.212 -1.274 -9.783 -1.767 -13.735 -1.767m-21.643 3.838h0.006z"/></g><g><path style="fill:#FCD8C5;" d="M221.517 343.119s12.631 11.538 4.654 22.728 -33.905 11.412 -31.135 4.321c2.77 -7.091 8.753 -3.767 9.307 -10.194"/></g><g><path style="fill:#4D0D4F;" d="M203.929 377.631c-3.462 0 -6.509 -0.559 -8.568 -1.672 -2.771 -1.499 -3.844 -4.088 -2.802 -6.757 1.762 -4.51 4.79 -5.869 6.793 -6.769 1.773 -0.796 2.195 -0.985 2.341 -2.685 0.126 -1.463 1.41 -2.55 2.878 -2.421 1.463 0.126 2.547 1.415 2.421 2.878 -0.415 4.814 -3.332 6.124 -5.462 7.08 -1.686 0.757 -3.022 1.357 -3.99 3.78 0.561 0.463 2.62 1.247 6.415 1.247q0.036 0 0.073 0c7.103 -0.019 16.246 -2.775 19.976 -8.007 6.393 -8.968 -3.708 -17.191 -4.142 -17.536 -1.146 -0.914 -1.338 -2.586 -0.427 -3.734 0.911 -1.149 2.576 -1.345 3.728 -0.436 5.056 3.992 12.644 14.311 5.171 24.793 -4.886 6.853 -15.894 10.239 -24.407 10.239"/></g></g><g><path style="fill:#4D0D4F;" d="M199.622 377.259c-1.463 0 -2.653 -1.183 -2.659 -2.648 -0.006 -1.468 1.179 -2.664 2.648 -2.67 5.35 -0.023 9.206 -1.416 11.462 -4.142 3.36 -4.059 2.302 -10.011 2.291 -10.07 -0.268 -1.44 0.679 -2.83 2.117 -3.104 1.44 -0.273 2.827 0.663 3.106 2.1 0.066 0.34 1.561 8.401 -3.38 14.419 -3.306 4.027 -8.546 6.084 -15.574 6.114z"/></g><g><path style="fill:#AAAAAA;" points="2970.344,2875.498 2029.55,2875.498 2498.766,2279.084 3439.56,2279.084 			" d="M380.204 368.064L259.782 368.064L319.842 291.723L440.264 291.723Z"/></g><g><path style="fill:#4D0D4F;" d="M380.204 370.723H259.782a2.659 2.659 0 0 1 -2.392 -1.497 2.659 2.659 0 0 1 0.302 -2.806l60.06 -76.341a2.659 2.659 0 0 1 2.09 -1.015h120.422a2.659 2.659 0 0 1 2.392 1.497 2.659 2.659 0 0 1 -0.302 2.806l-60.06 76.341a2.66 2.66 0 0 1 -2.09 1.015m-114.946 -5.318h113.654l55.876 -71.023h-113.654z"/></g><g><g><path style="fill:#AAAAAA;" points="3051.789,2875.498 2110.996,2875.498 2580.212,2279.084 3521.005,2279.084 				" d="M390.629 368.064L270.207 368.064L330.267 291.723L450.689 291.723Z"/></g><g style="opacity:0.33;"><path style="fill:#FFFFFF;" d="M361.653 320.937c0.373 1.005 0.587 2.088 0.587 3.223 0 5.125 -4.155 9.28 -9.28 9.28 -0.793 0 -1.558 -0.11 -2.293 -0.297 1.311 3.534 4.703 6.057 8.693 6.057 5.125 0 9.28 -4.155 9.28 -9.28 0 -4.332 -2.973 -7.96 -6.987 -8.983"/></g><g><path style="fill:#4D0D4F;" d="M363.573 320.937c0.373 1.005 0.587 2.088 0.587 3.223 0 5.125 -4.155 9.28 -9.28 9.28 -0.793 0 -1.558 -0.11 -2.293 -0.297 1.311 3.534 4.703 6.057 8.693 6.057 5.125 0 9.28 -4.155 9.28 -9.28 0 -4.332 -2.973 -7.96 -6.987 -8.983"/></g><g style="opacity:0.33;"><path style="fill:#FFFFFF;" d="m330.267 291.723 100.779 4.625c3.287 0.151 5.028 3.955 2.993 6.541l-51.275 65.175h7.865l60.06 -76.341z"/></g><g><path style="fill:#4D0D4F;" d="M270.846 370.304a2.231 2.231 0 0 1 -1.383 -0.479c-0.972 -0.765 -1.14 -2.173 -0.376 -3.146l60.06 -76.341c0.765 -0.973 2.173 -1.14 3.146 -0.376 0.972 0.765 1.14 2.173 0.376 3.146l-60.06 76.341c-0.442 0.562 -1.099 0.855 -1.762 0.855"/></g><g><path style="fill:#4D0D4F;" d="M390.629 370.723h-119.657c-1.469 0 -2.659 -1.19 -2.659 -2.659s1.19 -2.659 2.659 -2.659h118.366l55.876 -71.023h-113.167c-1.469 0 -2.659 -1.19 -2.659 -2.659s1.19 -2.659 2.659 -2.659h118.643a2.659 2.659 0 0 1 2.09 4.303l-60.06 76.341a2.659 2.659 0 0 1 -2.09 1.015"/></g></g><g><g style="opacity:0.3;"><path style="fill:#4D0D4F;" d="M317.027 332.054c4.347 -18.088 13.602 -31.207 22.852 -40.331h-20.037l-60.06 76.341h130.847l9.697 -12.326c-32.645 5.06 -90.306 5.474 -83.299 -23.684"/></g><g style="opacity:0.3;"><path style="fill:#4D0D4F;" d="M221.517 344.685s7.202 9.695 -5.54 12.548c0 0 -4.432 7.087 -11.856 1.812s-26.173 -15.735 -4.499 -25.518c0 0 -10.05 0.846 -14.488 3.979l-6.719 -1.574s-9.529 2.438 -12.188 16.952 -57.862 33.575 -70.702 20.831c0 0 6.966 26.625 56.008 6.719h30.64s-6.638 -9.103 6.048 -12.371h52.242s3.878 -17.506 -18.947 -23.379"/></g><g style="opacity:0.3;"><path style="fill:#4D0D4F;" d="M121.244 343.119s14.38 -5.527 26.041 -7.338c0 0 -22.551 -9.684 -26.041 7.338"/></g><g style="opacity:0.3;"><path style="fill:#4D0D4F;" d="M154.574 266.904s1.565 34.735 38.049 41.55c0 0 -2.884 -10.36 -1.648 -16.731 0 0 2.589 15.567 14.876 22.714 0 0 0.707 14.458 11.732 20.774 0 0 -20.744 -4.386 -32.448 2.295 0 0 -28.145 -19.412 -30.561 -70.602"/></g><g style="opacity:0.3;"><path style="fill:#4D0D4F;" d="M302.341 271.791s-2.377 9.849 -7.806 11.068c0 0 6.021 22.989 -3.305 45.233l7.376 -9.375c0 0 9.749 -26.317 3.736 -46.926"/></g><g style="opacity:0.3;"><path style="fill:#4D0D4F;" d="M283.823 337.506s-18.152 8.841 -27.459 9.506 -17.62 -3.158 -17.62 -3.158 10.252 12.354 1.72 24.21h19.318z"/></g></g><g><path style="fill:#AAAAAA;" d="M389.49 382.246H186.837c-3.916 0 -7.091 -3.175 -7.091 -7.091s3.175 -7.091 7.091 -7.091h202.652z"/></g><g style="opacity:0.3;"><path style="fill:#4D0D4F;" d="M389.49 382.246H186.837c-3.916 0 -7.091 -3.175 -7.091 -7.091s3.175 -7.091 7.091 -7.091h202.652z"/></g><g style="opacity:0.33;"><path x="2994.845" y="2875.497" style="fill:#FFFFFF;" width="48.042" height="110.8" d="M383.34 368.064H389.49V382.246H383.34V368.064z"/></g><g><path style="fill:#4D0D4F;" d="M389.49 384.905H186.837c-5.376 0 -9.75 -4.374 -9.75 -9.75 0 -5.377 4.374 -9.75 9.75 -9.75h202.653c1.469 0 2.659 1.19 2.659 2.659v14.182c0 1.469 -1.19 2.659 -2.659 2.659m-202.653 -14.182c-2.444 0 -4.432 1.988 -4.432 4.432s1.988 4.432 4.432 4.432h199.993v-8.864z"/></g><g><path style="fill:#4D0D4F;" d="M262.347 384.905c-1.469 0 -2.659 -1.19 -2.659 -2.659v-14.182c0 -1.469 1.19 -2.659 2.659 -2.659s2.659 1.19 2.659 2.659v14.182c0 1.469 -1.19 2.659 -2.659 2.659"/></g><g><path style="fill:#4D0D4F;" d="M191.595 291.751c0.045 3.731 0.459 7.51 1.099 11.199 0.643 3.696 1.572 7.331 2.805 10.833 1.244 3.496 2.81 6.857 4.771 9.922 0.969 1.541 2.076 2.974 3.238 4.341 1.177 1.356 2.474 2.583 3.824 3.727l0.047 0.04c0.944 0.799 1.061 2.212 0.262 3.155s-2.212 1.061 -3.156 0.262a2.56 2.56 0 0 1 -0.114 -0.104c-1.457 -1.417 -2.822 -2.915 -4.028 -4.523 -1.191 -1.616 -2.293 -3.286 -3.23 -5.036 -1.897 -3.488 -3.297 -7.177 -4.34 -10.927 -1.03 -3.756 -1.718 -7.574 -2.109 -11.408 -0.386 -3.84 -0.537 -7.667 -0.309 -11.536a0.621 0.621 0 0 1 1.24 0.027z"/></g><g><g style="opacity:0.3;"><path style="fill:#4D0D4F;" d="M186.837 368.064c-3.916 0 -7.091 3.175 -7.091 7.091s3.175 7.091 7.091 7.091h44.752a99.149 99.149 0 0 1 -5.356 -14.182z"/></g></g><g><path style="fill:#4D0D4F;" d="M88.96 400.204c7.257 -1.316 14.513 -1.666 21.77 -1.805 7.257 -0.183 14.513 -0.086 21.769 0.014l10.885 0.08 10.885 0.005h239.465l10.885 -0.003c3.628 0.002 7.257 -0.116 10.885 -0.169 3.628 -0.055 7.257 0.03 10.885 0.245 3.628 0.253 7.257 0.675 10.885 1.634a0.882 0.882 0 0 1 0 1.707c-3.628 0.959 -7.257 1.381 -10.885 1.634 -3.628 0.215 -7.257 0.3 -10.885 0.245 -3.628 -0.054 -7.256 -0.172 -10.885 -0.169l-10.885 -0.003H154.269l-10.885 0.005 -10.885 0.08c-7.257 0.1 -14.513 0.197 -21.769 0.014 -7.257 -0.14 -14.513 -0.489 -21.77 -1.805a0.867 0.867 0 0 1 -0.698 -1.008c0.066 -0.365 0.354 -0.635 0.698 -0.699"/></g><g><g><path style="fill:#FF0000;" d="M361.111 156.321c-21.599 1.894 -38.19 20.574 -37.535 42.247 0.202 6.687 1.984 12.931 4.959 18.409 -0.356 6.525 -2.895 19.035 -4.323 25.676 -0.398 1.85 1.449 3.381 3.195 2.65l22.638 -9.488c5.353 2.049 11.22 3.019 17.321 2.63 21.986 -1.402 39.162 -20.205 38.543 -42.227 -0.667 -23.73 -21.135 -41.972 -44.799 -39.896"/><path style="fill:#4D0D4F;" d="M326.497 248.14c-1.143 0 -2.271 -0.395 -3.186 -1.154 -1.436 -1.192 -2.084 -3.066 -1.692 -4.89 1.392 -6.476 3.741 -18.052 4.22 -24.538 -3.06 -5.874 -4.713 -12.232 -4.915 -18.909 -0.702 -23.19 16.849 -42.942 39.954 -44.969 12.181 -1.069 23.903 2.814 33.017 10.931 9.114 8.117 14.322 19.316 14.665 31.534 0.319 11.34 -3.761 22.246 -11.487 30.708 -7.724 8.461 -18.214 13.517 -29.538 14.24 -5.969 0.38 -11.825 -0.435 -17.428 -2.427l-21.675 9.084a5.005 5.005 0 0 1 -1.936 0.391m34.846 -89.176c-20.308 1.781 -35.732 19.142 -35.116 39.524 0.185 6.101 1.745 11.896 4.639 17.223a2.65 2.65 0 0 1 0.317 1.41c-0.354 6.491 -2.761 18.522 -4.253 25.506l22.09 -9.258a2.652 2.652 0 0 1 1.973 -0.031c5.192 1.987 10.644 2.813 16.205 2.46 20.459 -1.305 36.636 -19.027 36.06 -39.506 -0.302 -10.741 -4.88 -20.586 -12.891 -27.721 -8.01 -7.135 -18.32 -10.547 -29.025 -9.608"/></g><g style="opacity:0.5;"><path style="fill:#FFFFFF;" d="M330.281 241.222c1.449 -7.033 3.252 -16.626 3.554 -22.174a2.653 2.653 0 0 0 -0.317 -1.41c-2.894 -5.327 -4.454 -11.122 -4.639 -17.223 -0.617 -20.382 14.808 -37.743 35.115 -39.524 8.853 -0.771 17.426 1.43 24.659 6.244 -7.741 -6.149 -17.35 -9.039 -27.311 -8.172 -20.307 1.782 -35.732 19.142 -35.115 39.524 0.184 6.101 1.745 11.896 4.639 17.223a2.653 2.653 0 0 1 0.317 1.41c-0.354 6.489 -2.761 18.521 -4.253 25.506z"/></g><g><g><path style="fill:#E74C3C;" x1="2736.046" y1="1840.849" x2="2677.569" y2="1793.906" d="M350.214 235.629L342.729 229.62"/></g><g><path style="fill:#650000;" d="m348.874 237.298 -6.145 -7.678 8.825 4.34c1.087 0.534 1.535 1.849 1 2.936s-1.849 1.535 -2.936 1a2.232 2.232 0 0 1 -0.744 -0.598"/></g></g><g style="opacity:0.3;"><path style="fill:#4D0D4F;" d="M391.35 166.849s26.885 58.508 -44.106 66.803c0 0 28.866 17.664 52.339 -14.841 0 0 15.647 -34.017 -8.233 -51.962"/></g><g style="opacity:0.3;"><path style="fill:#650000;" points="2687.481,1804.539 2529.639,1918.681 2728.069,1838.756 				" d="M343.998 230.981L323.794 245.591L349.193 235.361Z"/></g><g><g><path style="fill-rule:evenodd;clip-rule:evenodd;fill:#FFFFFF;" d="m377.515 208.723 -1.671 1.341 -0.2 4.239c-0.054 1.141 -1.073 2.033 -2.276 2.002l-0.01 0c-1.202 -0.031 -2.147 -0.974 -2.11 -2.115l0.057 -1.793c0.011 -0.35 -0.278 -0.642 -0.647 -0.652 -0.368 -0.009 -0.674 0.268 -0.684 0.618l-0.049 1.793c-0.031 1.14 -1.03 2.032 -2.229 2.001 -1.199 -0.031 -2.159 -0.974 -2.145 -2.113l0.019 -1.498c0.006 -0.511 -0.424 -0.938 -0.962 -0.952 -0.537 -0.013 -0.975 0.392 -0.979 0.903l-0.009 1.498c-0.007 1.139 -0.982 2.03 -2.178 1.999 -1.195 -0.031 -2.172 -0.973 -2.183 -2.111l-0.016 -1.79c-0.003 -0.35 -0.303 -0.641 -0.669 -0.65s-0.659 0.267 -0.654 0.617l0.024 1.789c0.015 1.138 -0.94 2.028 -2.133 1.997l-0.01 0c-1.192 -0.031 -2.184 -0.972 -2.217 -2.109l-0.12 -4.225 -1.627 -1.414c-4.226 -3.67 -6.867 -8.972 -7.179 -14.63 -0.644 -11.671 8.425 -21.685 20.315 -21.498 11.957 0.188 20.978 10.587 20.103 22.342 -0.424 5.696 -3.209 10.92 -7.562 14.411"/></g><g><g><path style="fill-rule:evenodd;clip-rule:evenodd;fill:#FF0000;" d="M356.927 188.653c-3.162 -0.016 -5.597 2.57 -5.441 5.733 0.152 3.096 2.755 5.586 5.817 5.609 3.066 0.023 5.513 -2.435 5.461 -5.538 -0.054 -3.171 -2.67 -5.788 -5.836 -5.804"/></g><g><path style="fill-rule:evenodd;clip-rule:evenodd;fill:#FF0000;" d="M372.712 188.493c-3.188 -0.016 -5.783 2.579 -5.797 5.754 -0.014 3.107 2.474 5.606 5.56 5.629 3.09 0.023 5.691 -2.444 5.807 -5.557 0.118 -3.182 -2.377 -5.809 -5.569 -5.826"/></g></g></g></g><g><path style="fill:#4D0D4F;" d="M402.231 403.076H154.262c-6.476 0 -11.745 -5.268 -11.745 -11.745s5.268 -11.745 11.745 -11.745h247.969c6.476 0 11.745 5.268 11.745 11.745s-5.268 11.745 -11.745 11.745M154.262 384.905c-3.543 0 -6.427 2.883 -6.427 6.427s2.883 6.427 6.427 6.427h247.969c3.543 0 6.427 -2.883 6.427 -6.427s-2.883 -6.427 -6.427 -6.427z"/></g></g></g></svg>
